<?xml version="1.0" encoding="UTF-8"?>
<svg id="Layer_1" data-name="Layer 1" xmlns="http://www.w3.org/2000/svg" viewBox="0 0 1080 1080">
  <defs>
    <style>
      .cls-1 {
        fill: #fff;
        stroke-width: 0px;
      }
    </style>
  </defs>
  <g>
    <path class="cls-1" d="M303.37,540h-.11s-.06,0-.09,0h.15s.04,0,.06,0Z"/>
    <path class="cls-1" d="M304.94,539.99s-.07,0-.1,0h-.11s.04,0,.06,0h.15Z"/>
    <path class="cls-1" d="M304.05,455.52c-22.89,0-41.45,18.91-41.45,42.24s18.07,41.74,40.53,42.23c-18.38-.48-33.13-15.53-33.13-34.03s15.24-34.05,34.05-34.05,34.05,15.24,34.05,34.05c0,16.64-11.94,30.5-27.71,33.46,12.99-2.63,22.76-14.11,22.76-27.87,0-15.7-12.73-28.44-28.44-28.44s-28.44,12.73-28.44,28.44,12.32,28.02,27.67,28.43h.45c.11,0,.2,0,.31,0s.2,0,.31,0h.36c-.05,0-.1,0-.15,0,.08,0,.16,0,.24,0,.12,0,.24,0,.36-.01.36-.01.72-.03,1.07-.06,21.56-1.49,38.6-19.78,38.6-42.14s-18.55-42.24-41.45-42.24ZM289.04,505.31c-2.53,0-4.56-2.05-4.56-4.56s2.04-4.56,4.56-4.56,4.56,2.05,4.56,4.56-2.05,4.56-4.56,4.56Z"/>
    <path class="cls-1" d="M305.5,539.98c.08,0,.16,0,.25,0-.21,0-.42.01-.63.01h-.12c.1,0,.2,0,.3,0,0,0,0,0,0,0,26.05-.67,46.96-21.98,46.96-48.19s-21.58-48.21-48.21-48.21-48.21,21.58-48.21,48.21,20.9,47.52,46.94,48.19c0,0,.01,0,.02,0,.1,0,.2,0,.3,0h-.12c-.21,0-.42,0-.63-.01.08,0,.16,0,.24,0-30.31-.77-54.65-25.58-54.65-56.08s25.12-56.1,56.1-56.1,56.1,25.12,56.1,56.1-24.34,55.31-54.65,56.08Z"/>
    <path class="cls-1" d="M306.98,539.94s-.08,0-.12,0c-.16,0-.32.01-.47.01,35.13-1.24,63.24-30.1,63.24-65.54s-29.36-65.57-65.57-65.57-65.58,29.36-65.58,65.57,28.11,64.3,63.24,65.54c-.16,0-.32-.01-.47-.01-.04,0-.08,0-.12,0-39.03-1.54-70.2-33.66-70.2-73.07s32.74-73.13,73.13-73.13,73.13,32.74,73.13,73.13-31.17,71.53-70.2,73.07Z"/>
    <path class="cls-1" d="M394.97,449.08c0,49.23-39.14,89.31-87.98,90.86,44.07-1.54,79.32-37.75,79.32-82.2s-36.83-82.26-82.26-82.26-82.26,36.83-82.26,82.26,35.26,80.66,79.33,82.2c-48.85-1.54-87.98-41.62-87.98-90.86s40.7-90.92,90.92-90.92,90.92,40.7,90.92,90.92Z"/>
    <path class="cls-1" d="M303.37,540h-.11s-.01,0-.02,0h.07s.04,0,.06,0Z"/>
    <path class="cls-1" d="M304.86,539.99s-.02,0-.02,0h-.11s.04,0,.06,0h.07Z"/>
    <path class="cls-1" d="M304.05,455.52c-22.89,0-41.45,18.91-41.45,42.24s18.07,41.74,40.53,42.23c-18.38-.48-33.13-15.53-33.13-34.03s15.24-34.05,34.05-34.05,34.05,15.24,34.05,34.05c0,16.64-11.94,30.5-27.71,33.46,12.99-2.63,22.76-14.11,22.76-27.87,0-15.7-12.73-28.44-28.44-28.44s-28.44,12.73-28.44,28.44,12.32,28.02,27.67,28.43h.45c.11,0,.2,0,.31,0s.2,0,.31,0h.36c-.05,0-.1,0-.15,0,.08,0,.16,0,.24,0,.12,0,.24,0,.36-.01.36-.01.72-.03,1.07-.06,21.56-1.49,38.6-19.78,38.6-42.14s-18.55-42.24-41.45-42.24ZM289.04,505.31c-2.53,0-4.56-2.05-4.56-4.56s2.04-4.56,4.56-4.56,4.56,2.05,4.56,4.56-2.05,4.56-4.56,4.56Z"/>
    <path class="cls-1" d="M305.5,539.98c.08,0,.16,0,.25,0-.21,0-.42.01-.63.01h-.12c.1,0,.2,0,.3,0,0,0,0,0,0,0,26.05-.67,46.96-21.98,46.96-48.19s-21.58-48.21-48.21-48.21-48.21,21.58-48.21,48.21,20.9,47.52,46.94,48.19c0,0,.01,0,.02,0,.1,0,.2,0,.3,0h-.12c-.21,0-.42,0-.63-.01.08,0,.16,0,.24,0-30.31-.77-54.65-25.58-54.65-56.08s25.12-56.1,56.1-56.1,56.1,25.12,56.1,56.1-24.34,55.31-54.65,56.08Z"/>
    <path class="cls-1" d="M377.18,466.87c0,39.41-31.17,71.53-70.2,73.07-.04,0-.08,0-.12,0-.16,0-.32.01-.47.01,35.13-1.24,63.24-30.1,63.24-65.54s-29.36-65.57-65.57-65.57-65.58,29.36-65.58,65.57,28.11,64.3,63.24,65.54c-.16,0-.32-.01-.47-.01-.04,0-.08,0-.12,0-39.03-1.54-70.2-33.66-70.2-73.07s32.74-73.13,73.13-73.13,73.13,32.74,73.13,73.13Z"/>
    <path class="cls-1" d="M303.31,539.99s.08,0,.12,0h-.06s-.04,0-.06,0Z"/>
    <path class="cls-1" d="M304.67,540s.08,0,.12,0c-.02,0-.04,0-.06,0h-.06Z"/>
    <path class="cls-1" d="M304.05,455.52c-22.89,0-41.45,18.91-41.45,42.24s18.07,41.74,40.53,42.23c-18.38-.48-33.13-15.53-33.13-34.03s15.24-34.05,34.05-34.05,34.05,15.24,34.05,34.05c0,16.64-11.94,30.5-27.71,33.46,12.99-2.63,22.76-14.11,22.76-27.87,0-15.7-12.73-28.44-28.44-28.44s-28.44,12.73-28.44,28.44,12.32,28.02,27.67,28.43h.45c.11,0,.2,0,.31,0s.2,0,.31,0h.36c-.05,0-.1,0-.15,0,.08,0,.16,0,.24,0,.12,0,.24,0,.36-.01.36-.01.72-.03,1.07-.06,21.56-1.49,38.6-19.78,38.6-42.14s-18.55-42.24-41.45-42.24ZM289.04,505.31c-2.53,0-4.56-2.05-4.56-4.56s2.04-4.56,4.56-4.56,4.56,2.05,4.56,4.56-2.05,4.56-4.56,4.56Z"/>
    <path class="cls-1" d="M305.5,539.98c-.06,0-.13,0-.2,0,26.05-.67,46.96-21.98,46.96-48.19s-21.58-48.21-48.21-48.21-48.21,21.58-48.21,48.21,20.9,47.52,46.94,48.19c-.06,0-.12,0-.18,0-30.31-.77-54.65-25.58-54.65-56.08s25.12-56.1,56.1-56.1,56.1,25.12,56.1,56.1-24.34,55.31-54.65,56.08Z"/>
    <path class="cls-1" d="M377.18,466.87c0,39.41-31.17,71.53-70.2,73.07-.04,0-.08,0-.12,0-.16,0-.32.01-.47.01,35.13-1.24,63.24-30.1,63.24-65.54s-29.36-65.57-65.57-65.57-65.58,29.36-65.58,65.57,28.11,64.3,63.24,65.54c-.16,0-.32-.01-.47-.01-.04,0-.08,0-.12,0-39.03-1.54-70.2-33.66-70.2-73.07s32.74-73.13,73.13-73.13,73.13,32.74,73.13,73.13Z"/>
    <path class="cls-1" d="M304.05,455.52c-22.89,0-41.45,18.91-41.45,42.24s18.07,41.74,40.53,42.23c-18.38-.48-33.13-15.53-33.13-34.03s15.24-34.05,34.05-34.05,34.05,15.24,34.05,34.05c0,16.64-11.94,30.5-27.71,33.46,12.99-2.63,22.76-14.11,22.76-27.87,0-15.7-12.73-28.44-28.44-28.44s-28.44,12.73-28.44,28.44,12.32,28.02,27.67,28.43h.45c.11,0,.2,0,.31,0s.2,0,.31,0h.36c-.05,0-.1,0-.15,0,.08,0,.16,0,.24,0,.12,0,.24,0,.36-.01.36-.01.72-.03,1.07-.06,21.56-1.49,38.6-19.78,38.6-42.14s-18.55-42.24-41.45-42.24ZM289.04,505.31c-2.53,0-4.56-2.05-4.56-4.56s2.04-4.56,4.56-4.56,4.56,2.05,4.56,4.56-2.05,4.56-4.56,4.56Z"/>
    <path class="cls-1" d="M360.15,483.9c0,30.5-24.34,55.31-54.65,56.08-.06,0-.13,0-.2,0,26.05-.67,46.96-21.98,46.96-48.19s-21.58-48.21-48.21-48.21-48.21,21.58-48.21,48.21,20.9,47.52,46.94,48.19c-.06,0-.12,0-.18,0-30.31-.77-54.65-25.58-54.65-56.08s25.12-56.1,56.1-56.1,56.1,25.12,56.1,56.1Z"/>
    <path class="cls-1" d="M303.37,540h-.11s-.01,0-.02,0h.07s.04,0,.06,0Z"/>
    <path class="cls-1" d="M304.86,539.99s-.02,0-.02,0h-.11s.04,0,.06,0h.07Z"/>
    <path class="cls-1" d="M304.05,455.52c-22.89,0-41.45,18.91-41.45,42.24s18.07,41.74,40.53,42.23c-18.38-.48-33.13-15.53-33.13-34.03s15.24-34.05,34.05-34.05,34.05,15.24,34.05,34.05c0,16.64-11.94,30.5-27.71,33.46,12.99-2.63,22.76-14.11,22.76-27.87,0-15.7-12.73-28.44-28.44-28.44s-28.44,12.73-28.44,28.44,12.32,28.02,27.67,28.43h.45c.11,0,.2,0,.31,0s.2,0,.31,0h.36c-.05,0-.1,0-.15,0,.08,0,.16,0,.24,0,.12,0,.24,0,.36-.01.36-.01.72-.03,1.07-.06,21.56-1.49,38.6-19.78,38.6-42.14s-18.55-42.24-41.45-42.24ZM289.04,505.31c-2.53,0-4.56-2.05-4.56-4.56s2.04-4.56,4.56-4.56,4.56,2.05,4.56,4.56-2.05,4.56-4.56,4.56Z"/>
    <path class="cls-1" d="M360.15,483.9c0,30.5-24.34,55.31-54.65,56.08-.06,0-.13,0-.2,0,26.05-.67,46.96-21.98,46.96-48.19s-21.58-48.21-48.21-48.21-48.21,21.58-48.21,48.21,20.9,47.52,46.94,48.19c-.06,0-.12,0-.18,0-30.31-.77-54.65-25.58-54.65-56.08s25.12-56.1,56.1-56.1,56.1,25.12,56.1,56.1Z"/>
    <path class="cls-1" d="M303.31,539.99c.24,0,.49,0,.74,0-.21,0-.41,0-.62,0h-.06s-.04,0-.06,0Z"/>
    <path class="cls-1" d="M304.79,539.99s-.04,0-.06,0h-.06c-.21,0-.41,0-.62,0,.25,0,.49,0,.74,0Z"/>
    <path class="cls-1" d="M303.31,539.99s.08,0,.12,0h-.11s0,0-.01,0Z"/>
    <path class="cls-1" d="M304.67,540s.08,0,.12,0c0,0,0,0-.01,0h-.11Z"/>
    <path class="cls-1" d="M304.05,455.52c-22.89,0-41.45,18.91-41.45,42.24s18.07,41.74,40.53,42.23c-18.38-.48-33.13-15.53-33.13-34.03s15.24-34.05,34.05-34.05,34.05,15.24,34.05,34.05c0,16.64-11.94,30.5-27.71,33.46,12.99-2.63,22.76-14.11,22.76-27.87,0-15.7-12.73-28.44-28.44-28.44s-28.44,12.73-28.44,28.44,12.32,28.02,27.67,28.43h.45c.11,0,.2,0,.31,0s.2,0,.31,0h.36c-.05,0-.1,0-.15,0,.08,0,.16,0,.24,0,.12,0,.24,0,.36-.01.36-.01.72-.03,1.07-.06,21.56-1.49,38.6-19.78,38.6-42.14s-18.55-42.24-41.45-42.24ZM289.04,505.31c-2.53,0-4.56-2.05-4.56-4.56s2.04-4.56,4.56-4.56,4.56,2.05,4.56,4.56-2.05,4.56-4.56,4.56Z"/>
    <path class="cls-1" d="M304.05,455.52c-22.89,0-41.45,18.91-41.45,42.24s18.07,41.74,40.53,42.23c-18.38-.48-33.13-15.53-33.13-34.03s15.24-34.05,34.05-34.05,34.05,15.24,34.05,34.05c0,16.64-11.94,30.5-27.71,33.46,12.99-2.63,22.76-14.11,22.76-27.87,0-15.7-12.73-28.44-28.44-28.44s-28.44,12.73-28.44,28.44,12.32,28.02,27.67,28.43h.45c.11,0,.2,0,.31,0s.2,0,.31,0h.36c-.05,0-.1,0-.15,0,.08,0,.16,0,.24,0,.12,0,.24,0,.36-.01.36-.01.72-.03,1.07-.06,21.56-1.49,38.6-19.78,38.6-42.14s-18.55-42.24-41.45-42.24ZM289.04,505.31c-2.53,0-4.56-2.05-4.56-4.56s2.04-4.56,4.56-4.56,4.56,2.05,4.56,4.56-2.05,4.56-4.56,4.56Z"/>
    <path class="cls-1" d="M304.71,483.1c-15.7,0-28.44,12.73-28.44,28.44s12.32,28.02,27.67,28.43h.45c.11,0,.2,0,.31,0s.2,0,.31,0h.45c.12,0,.24,0,.36-.01,1.42-.07,2.83-.24,4.2-.48.12-.02.24-.04.36-.07,12.99-2.63,22.76-14.11,22.76-27.87,0-15.7-12.73-28.44-28.44-28.44ZM289.04,505.31c-2.53,0-4.56-2.05-4.56-4.56s2.04-4.56,4.56-4.56,4.56,2.05,4.56,4.56-2.05,4.56-4.56,4.56Z"/>
    <path class="cls-1" d="M304.71,483.1c-15.7,0-28.44,12.73-28.44,28.44s12.32,28.02,27.67,28.43h.45c.11,0,.2,0,.31,0s.2,0,.31,0h.45c.12,0,.24,0,.36-.01.36-.01.72-.03,1.07-.06,1.06-.08,2.1-.22,3.13-.42.12-.02.24-.04.36-.07,12.99-2.63,22.76-14.11,22.76-27.87,0-15.7-12.73-28.44-28.44-28.44ZM289.04,505.31c-2.53,0-4.56-2.05-4.56-4.56s2.04-4.56,4.56-4.56,4.56,2.05,4.56,4.56-2.05,4.56-4.56,4.56Z"/>
  </g>
  <g>
    <path class="cls-1" d="M477.23,425.71c-3.17-4.46-8.81-6.58-14.57-6.58-6.81,0-13.63,3.05-13.63,10.69,0,16.68,39.47,7.17,39.47,36.77,0,17.86-14.1,26.55-30.43,26.55-10.34,0-20.44-3.17-27.25-11.28l11.16-10.81c3.64,5.52,9.87,8.69,16.45,8.69s14.57-3.76,14.57-11.39c0-18.21-39.47-7.75-39.47-37.48,0-17.15,15.27-25.14,30.66-25.14,8.69,0,17.39,2.47,23.85,8.58l-10.81,11.39Z"/>
    <path class="cls-1" d="M503.89,407.85h27.96c16.09,0,30.66,5.64,30.66,24.08,0,20.91-15.62,24.67-33.25,24.67h-10.57v34.42h-14.8v-83.17ZM527.62,443.92c8.46,0,19.38-.47,19.38-11.75,0-10.22-9.75-11.63-17.74-11.63h-10.57v23.38h8.93Z"/>
    <path class="cls-1" d="M593.87,407.85h12.8l35.83,83.17h-16.92l-7.75-19.03h-36.07l-7.52,19.03h-16.56l36.18-83.17ZM612.67,459.31l-12.8-33.83-13.04,33.83h25.84Z"/>
    <path class="cls-1" d="M708.87,427.35c-6.11-6.46-11.75-8.22-17.5-8.22-17.15,0-28.55,13.16-28.55,29.72,0,17.74,11.4,30.9,28.55,30.9,6.7,0,13.16-3.05,18.68-10.1l12.22,8.69c-7.52,10.34-18.8,14.8-31.01,14.8-25.61,0-43.94-17.39-43.94-43.35s18.33-44.05,43.94-44.05c11.28,0,20.91,3.64,29.13,13.16l-11.51,8.46Z"/>
    <path class="cls-1" d="M732.24,407.85h55.1v13.39h-40.29v20.44h38.18v13.39h-38.18v22.56h42.41v13.39h-57.21v-83.17Z"/>
    <path class="cls-1" d="M844.78,425.71c-3.17-4.46-8.81-6.58-14.57-6.58-6.81,0-13.63,3.05-13.63,10.69,0,16.68,39.47,7.17,39.47,36.77,0,17.86-14.1,26.55-30.43,26.55-10.34,0-20.44-3.17-27.25-11.28l11.16-10.81c3.64,5.52,9.87,8.69,16.45,8.69s14.57-3.76,14.57-11.39c0-18.21-39.47-7.75-39.47-37.48,0-17.15,15.27-25.14,30.66-25.14,8.69,0,17.39,2.47,23.85,8.58l-10.81,11.39Z"/>
  </g>
</svg>