<?xml version="1.0" encoding="UTF-8"?>
<svg version="1.1" xmlns="http://www.w3.org/2000/svg" width="1000" height="870">
<path d="M0 0 C12.66375 -0.061875 25.3275 -0.12375 38.375 -0.1875 C42.3561084 -0.21481201 46.3372168 -0.24212402 50.43896484 -0.27026367 C55.3449707 -0.28381348 55.3449707 -0.28381348 57.65029907 -0.28633118 C59.24155198 -0.29090223 60.83279526 -0.30137848 62.42398071 -0.31672668 C76.53095825 -0.4458569 88.84137923 0.80441017 99.8203125 10.62890625 C106.86234271 18.25482339 109.33261787 27.44975003 109.14453125 37.640625 C108.48671078 48.37909962 103.65875766 54.79175749 96 62 C96.65226562 62.40089844 97.30453125 62.80179687 97.9765625 63.21484375 C104.33183988 67.34858612 108.43462941 71.3046341 112 78 C112.61875 79.155 113.2375 80.31 113.875 81.5 C117.37876059 91.99030117 115.75822529 105.24711586 111 115 C105.30785721 124.76758231 96.77117678 131.3951745 85.99502563 134.59542847 C77.41054096 136.57704273 68.71290539 136.25159211 59.9609375 136.1953125 C58.42228338 136.19236586 56.88362724 136.19032925 55.3449707 136.18920898 C49.6882829 136.17879359 44.03163823 136.15087122 38.375 136.125 C25.71125 136.08375 13.0475 136.0425 0 136 C0 91.12 0 46.24 0 0 Z M38 31 C38 37.93 38 44.86 38 52 C42.22955053 52.08093399 46.45755211 52.1404757 50.6875 52.1875 C52.48477539 52.22520508 52.48477539 52.22520508 54.31835938 52.26367188 C56.05375977 52.27817383 56.05375977 52.27817383 57.82421875 52.29296875 C59.41882935 52.31653442 59.41882935 52.31653442 61.0456543 52.34057617 C64.4218133 51.95137348 66.26677064 50.9802619 69 49 C71.56632517 45.57823311 71.36435051 42.15359579 71 38 C69.30425792 34.18458033 67.86646499 32.49087564 64 31 C61.09627521 30.72530453 61.09627521 30.72530453 57.921875 30.8046875 C56.76171875 30.81113281 55.6015625 30.81757813 54.40625 30.82421875 C53.1996875 30.84097656 51.993125 30.85773438 50.75 30.875 C49.52796875 30.88402344 48.3059375 30.89304687 47.046875 30.90234375 C44.03116634 30.92590397 41.01555842 30.96177461 38 31 Z M38 79 C38 87.25 38 95.5 38 104 C42.02059946 104.06914407 46.03967009 104.12879137 50.06054688 104.16479492 C51.42617816 104.17981428 52.79176176 104.20023608 54.15722656 104.22631836 C56.12803905 104.26300137 58.09921408 104.27818551 60.0703125 104.29296875 C61.25383301 104.3086792 62.43735352 104.32438965 63.65673828 104.34057617 C67.43281558 103.95590932 69.79037574 103.00244405 73 101 C75.9317767 96.2713279 76.49171604 92.5766178 75.6484375 87.0859375 C74.61548562 83.76306821 72.71511832 82.06866158 70 80 C66.58248347 78.86082782 63.96512063 78.88661519 60.36328125 78.90234375 C59.06455078 78.90556641 57.76582031 78.90878906 56.42773438 78.91210938 C55.05598892 78.92046469 53.68424413 78.92892963 52.3125 78.9375 C50.92903805 78.94251665 49.54557437 78.94707927 48.16210938 78.95117188 C44.77472104 78.96297462 41.3873551 78.98091033 38 79 Z " fill="#D2D2D2" transform="translate(49,353)"/>
<path d="M0 0 C3.92566415 3.28460452 7.16172055 6.74258082 10 11 C10.4125 10.48050781 10.825 9.96101563 11.25 9.42578125 C17.22147337 2.21469399 22.82635049 -1.79600412 32 -4 C43.37103887 -5.05719929 52.45972628 -4.00259348 61.375 3.375 C69.79321123 11.36975996 72.71886291 20.99677868 73.12025452 32.42332458 C73.11803391 33.615793 73.11581329 34.80826141 73.11352539 36.03686523 C73.11367142 36.70113022 73.11381744 37.3653952 73.1139679 38.04978943 C73.11327785 40.21942549 73.10552854 42.38897291 73.09765625 44.55859375 C73.09578884 46.07316542 73.09436646 47.58773769 73.09336853 49.10231018 C73.0895688 53.06918027 73.07976051 57.03601316 73.06866455 61.00286865 C73.05658676 65.77287782 73.05203607 70.5428995 73.04621124 75.31291962 C73.03654718 82.5419722 73.0173729 89.77094333 73 97 C61.12 97 49.24 97 37 97 C36.96261719 92.84535156 36.92523437 88.69070313 36.88671875 84.41015625 C36.84855426 81.07638731 36.80748199 77.7426821 36.7644577 74.40897369 C36.719982 70.90149662 36.68051006 67.39413388 36.65356445 63.88647461 C36.62233683 59.85241123 36.56755599 55.81895464 36.51171875 51.78515625 C36.50532883 50.54105484 36.4989389 49.29695343 36.49235535 48.01515198 C36.38120738 41.38616979 36.15483282 34.98655356 33 29 C29.54138188 27.27069094 25.78193574 27.52135929 22 28 C18.11355399 30.590964 17.24949136 33.62043375 16 38 C15.67897626 40.98606957 15.67897626 40.98606957 15.68115234 44.09716797 C15.66128265 45.27793915 15.64141296 46.45871033 15.62094116 47.67526245 C15.60938995 48.93484772 15.59783875 50.19443298 15.5859375 51.4921875 C15.56657135 52.79326447 15.5472052 54.09434143 15.5272522 55.43484497 C15.47612061 58.87720764 15.43639412 62.31960922 15.39910889 65.762146 C15.35894953 69.28163083 15.30801622 72.80095898 15.2578125 76.3203125 C15.16026766 83.21348085 15.08060058 90.10652941 15 97 C3.12 97 -8.76 97 -21 97 C-21.05607422 90.51666016 -21.05607422 90.51666016 -21.11328125 83.90234375 C-21.1514226 80.44281799 -21.19249512 76.98335449 -21.2355423 73.52388763 C-21.28009235 69.8793093 -21.31954986 66.23484298 -21.34643555 62.59008789 C-21.37256097 59.07557706 -21.413027 55.56149019 -21.46318626 52.04724312 C-21.48784128 50.06275677 -21.49787588 48.07810606 -21.50764465 46.0934906 C-21.61109612 39.71347459 -21.70170779 34.56084485 -25 29 C-28.46154802 27.26922599 -32.21492365 27.52770883 -36 28 C-39.48034932 30.23099316 -40.51967396 32.78039421 -41.58294678 36.70193481 C-42.51938042 41.86191307 -42.36506101 47.14248141 -42.4140625 52.37109375 C-42.43342865 53.64855972 -42.4527948 54.9260257 -42.4727478 56.24220276 C-42.52223006 59.61720531 -42.56357072 62.99210387 -42.60089111 66.36724854 C-42.64109741 69.81979927 -42.69200999 73.27219153 -42.7421875 76.72460938 C-42.83963516 83.48301085 -42.91936237 90.24129354 -43 97 C-55.21 97 -67.42 97 -80 97 C-80 64.66 -80 32.32 -80 -1 C-68.78 -1 -57.56 -1 -46 -1 C-45.505 4.445 -45.505 4.445 -45 10 C-44.175 8.948125 -43.35 7.89625 -42.5 6.8125 C-32.25489476 -5.0959282 -13.55990084 -8.46907301 0 0 Z " fill="#D2D2D2" transform="translate(500,392)"/>
<path d="M0 0 C3.02696675 1.79439506 5.50822127 3.80281324 8.0625 6.22265625 C8.7225 3.91265625 9.3825 1.60265625 10.0625 -0.77734375 C20.9525 -0.77734375 31.8425 -0.77734375 43.0625 -0.77734375 C43.17576247 11.92338702 43.26736702 24.62377868 43.32156086 37.32490158 C43.34757996 43.22346614 43.38283751 49.12166525 43.43969727 55.02001953 C43.4942911 60.71941944 43.52397827 66.41846931 43.53688622 72.11811066 C43.54607707 74.28529617 43.56402409 76.45246398 43.59115028 78.61949921 C43.78114656 94.43642298 43.07010829 106.11329786 31.515625 118.03125 C20.53609227 127.83939946 8.89119014 129.73019295 -5.4375 129.59765625 C-6.69175781 129.60925781 -7.94601562 129.62085938 -9.23828125 129.6328125 C-22.35722006 129.59160117 -34.33896335 126.45286168 -44.11328125 117.15234375 C-48.94293096 111.38158456 -52.9375 103.88662352 -52.9375 96.22265625 C-41.3875 96.22265625 -29.8375 96.22265625 -17.9375 96.22265625 C-17.2775 97.87265625 -16.6175 99.52265625 -15.9375 101.22265625 C-9.82012849 103.74157393 -4.41477977 103.99426798 1.875 102.03515625 C5.07729579 100.51691233 5.07729579 100.51691233 6.5 98.16015625 C7.32664109 93.84325276 7.21559934 89.60299853 7.0625 85.22265625 C6.216875 85.98578125 5.37125 86.74890625 4.5 87.53515625 C-2.59967371 93.36349304 -10.47039464 94.7615817 -19.515625 94.0078125 C-30.45289608 92.20213095 -39.09355243 86.92480756 -45.9375 78.22265625 C-51.09656888 69.72731584 -54.15076666 61.15048178 -54.9375 51.22265625 C-54.99164062 50.58070313 -55.04578125 49.93875 -55.1015625 49.27734375 C-55.72978067 34.2572185 -51.01569073 19.3098005 -41.5 7.66015625 C-30.85952548 -3.48132716 -13.9938575 -6.59507811 0 0 Z M-13.9375 28.22265625 C-18.86044719 35.90644545 -19.97815665 43.88324329 -18.51171875 52.81640625 C-17.20176837 58.15264582 -15.43977392 61.89803015 -10.96484375 65.21875 C-7.24341096 67.06154042 -3.94689738 67.15915783 0.0625 66.22265625 C5.71720451 63.12857265 7.44424178 59.09432495 9.3671875 53.05078125 C11.38237975 44.8541566 9.89622433 37.73628264 6.0625 30.22265625 C3.71581416 27.50519405 2.49813151 26.36786675 -0.9375 25.22265625 C-8.0055055 24.73179426 -8.0055055 24.73179426 -13.9375 28.22265625 Z " fill="#D2D2D2" transform="translate(910.9375,390.77734375)"/>
<path d="M0 0 C5.10863896 -0.0246501 10.21724359 -0.04283607 15.32592773 -0.05493164 C17.06519168 -0.05997204 18.80445136 -0.0668043 20.54370117 -0.07543945 C23.03825937 -0.08751792 25.53276173 -0.09323108 28.02734375 -0.09765625 C28.80963852 -0.10281754 29.59193329 -0.10797882 30.39793396 -0.11329651 C32.26567114 -0.11349226 34.13329204 -0.06199694 36 0 C37 1 37 1 37.12025452 2.82862854 C37.11803391 3.62582809 37.11581329 4.42302765 37.11352539 5.24438477 C37.11344986 6.14524307 37.11337433 7.04610138 37.11329651 7.97425842 C37.10813522 8.95341721 37.10297394 9.93257599 37.09765625 10.94140625 C37.0962413 11.93881332 37.09482635 12.9362204 37.09336853 13.96385193 C37.08775114 17.16343124 37.07519571 20.36294169 37.0625 23.5625 C37.05748724 25.72591045 37.05292395 27.88932199 37.04882812 30.05273438 C37.03777607 35.36851325 37.02102104 40.68425171 37 46 C37.76441406 45.22011719 38.52882813 44.44023437 39.31640625 43.63671875 C47.18690598 35.903695 54.71445286 34.58675176 65.24194336 34.63647461 C71.28051751 34.77476257 75.92139912 35.55307812 81 39 C81.76570312 39.49757813 82.53140625 39.99515625 83.3203125 40.5078125 C93.44967474 47.69531376 98.71287308 58.34767035 101.54638672 70.3059082 C104.92666389 90.38198927 102.54359802 110.47990281 90.75 127.1875 C82.60780451 135.51474539 73.61329857 139.04658869 62.0625 139.4375 C51.14905016 139.15311043 43.60692196 135.75949632 36 128 C35.505 131.96 35.505 131.96 35 136 C30.17619198 136.0246519 25.35242033 136.04283693 20.52856445 136.05493164 C18.88630536 136.05997174 17.24405077 136.06680378 15.60180664 136.07543945 C13.24624521 136.08751926 10.89074291 136.09323139 8.53515625 136.09765625 C7.79660904 136.10281754 7.05806183 136.10797882 6.2971344 136.11329651 C4.53101912 136.1134925 2.76502854 136.06194719 1 136 C0 135 0 135 -0.12304783 132.76860714 C-0.12212604 131.77399251 -0.12120424 130.77937788 -0.12025452 129.75462341 C-0.12162918 128.61733795 -0.12300385 127.48005249 -0.12442017 126.30830383 C-0.12082489 125.04954941 -0.11722961 123.79079498 -0.11352539 122.49389648 C-0.11367142 121.17701843 -0.11381744 119.86014038 -0.1139679 118.50335693 C-0.11425587 114.88161732 -0.10835924 111.25991054 -0.10139394 107.63817859 C-0.0951603 103.85718116 -0.09455659 100.07618305 -0.09336853 96.29518127 C-0.09025524 89.1305571 -0.08204189 81.9659481 -0.07201904 74.80133063 C-0.06085782 66.64668838 -0.05534743 58.49204543 -0.05032361 50.33739746 C-0.03985928 33.55825607 -0.02225989 16.77912997 0 0 Z M40.65625 66.55859375 C35.05512131 74.39040451 34.30930446 84.04677868 35.45703125 93.390625 C36.72721638 99.49482403 39.03799291 105.03039432 44 109 C47.70721667 110.85360833 51.95354138 110.45315231 56 110 C60.86016107 107.31140026 63.01192292 103.34969694 64.56323242 98.09057617 C65.3755447 94.20246546 65.2689976 90.27121865 65.3125 86.3125 C65.35600586 85.02182617 65.35600586 85.02182617 65.40039062 83.70507812 C65.47309018 76.28413136 63.73370625 70.216125 58.875 64.5 C53.01405292 59.81124234 45.39931718 61.05718734 40.65625 66.55859375 Z " fill="#D2D2D2" transform="translate(580,353)"/>
<path d="M0 0 C12.85736572 9.398393 18.01075537 23.04983872 20.66796875 38.25 C21.33381887 43.40583942 21.20703125 48.38077567 21.20703125 53.61328125 C0.08703125 53.94328125 -21.03296875 54.27328125 -42.79296875 54.61328125 C-39.91952047 64.30997886 -39.91952047 64.30997886 -34.79296875 67.61328125 C-29.70610682 69.30890189 -25.3974601 69.1778245 -20.41796875 67.42578125 C-17.25184913 65.59694685 -17.25184913 65.59694685 -15.79296875 60.61328125 C-4.24296875 60.61328125 7.30703125 60.61328125 19.20703125 60.61328125 C17.57095343 72.06582602 12.22120694 80.36687745 3.20703125 87.61328125 C-9.70150022 96.09179125 -25.28004938 97.18501086 -40.2265625 95.14453125 C-53.65471055 92.21094364 -64.03240349 84.85704605 -71.89453125 73.7265625 C-79.59445067 61.09932838 -81.9072766 46.0744343 -79.109375 31.5859375 C-77.19198164 23.74928828 -74.54346822 17.14223404 -69.79296875 10.61328125 C-69.34179688 9.98035156 -68.890625 9.34742188 -68.42578125 8.6953125 C-52.28803027 -11.95553833 -20.97197874 -13.65380845 0 0 Z M-38.79296875 19.61328125 C-40.08571618 21.36622493 -40.08571618 21.36622493 -40.98046875 23.42578125 C-41.30402344 24.09222656 -41.62757813 24.75867188 -41.9609375 25.4453125 C-43.02156572 28.02718468 -43.02156572 28.02718468 -43.79296875 32.61328125 C-34.22296875 32.61328125 -24.65296875 32.61328125 -14.79296875 32.61328125 C-16.89762623 23.3331703 -16.89762623 23.3331703 -20.29296875 19.48828125 C-25.9169223 16.47544899 -33.27496959 15.90269613 -38.79296875 19.61328125 Z " fill="#D2D2D2" transform="translate(763.79296875,396.38671875)"/>
<path d="M0 0 C12.04128741 11.44820908 17.0350815 24.34496516 17.4921875 40.80078125 C17.31145787 56.54233246 12.47565046 69.08336235 1.6640625 80.51171875 C-10.37226641 91.57737598 -24.90280606 93.3913953 -40.54736328 92.87451172 C-52.67096095 92.12733174 -64.58441216 86.76130741 -72.7578125 77.73828125 C-82.52253221 64.73862373 -87.5166319 49.61165689 -85.29296875 33.3359375 C-82.67108113 18.05452147 -76.2223977 5.62203864 -63.4453125 -3.63671875 C-44.54017906 -15.32413049 -17.27441078 -14.16697428 0 0 Z M-44.28515625 19.51953125 C-50.30722459 28.5925679 -49.83182585 41.87393508 -48.21875 52.18359375 C-47.02588222 57.51872765 -45.87254462 61.88901572 -41.7578125 65.73828125 C-38.0401349 67.59712005 -33.81555606 67.16777385 -29.7578125 66.73828125 C-25.00098945 64.46327892 -23.27444288 60.61607168 -21.55078125 55.83203125 C-18.62543976 44.41887627 -18.52956867 31.00564617 -23.98046875 20.34765625 C-26.58841585 16.77353376 -28.9495149 15.33326289 -33.3203125 14.61328125 C-38.2286074 14.44004731 -41.06884849 15.76854317 -44.28515625 19.51953125 Z " fill="#D2D2D2" transform="translate(294.7578125,399.26171875)"/>
<path d="M0 0 C9.88224364 8.44108311 16.74724891 18.90875418 18.375 31.9921875 C19.52977691 50.38226085 16.86214412 63.96873333 6.125 79.1796875 C-3.74197799 89.27091499 -15.86447218 93.93669527 -29.84155273 94.28491211 C-44.78022878 94.41428587 -57.53721102 91.21070971 -68.87109375 80.9609375 C-80.18602962 69.15404789 -84.0168071 54.51298931 -83.83203125 38.60546875 C-83.04806663 24.92306736 -77.19202172 11.1772429 -67.0078125 1.890625 C-48.18860475 -13.10303888 -19.55190775 -14.95488182 0 0 Z M-40.625 18.9921875 C-47.93136513 27.96857895 -47.60793478 39.98764387 -46.625 50.9921875 C-45.55169218 56.81125639 -44.57649197 62.05050202 -40.29296875 66.3125 C-36.09440621 68.9558117 -32.42693638 68.73704232 -27.625 67.9921875 C-22.81310815 65.69084792 -21.15785305 61.78435387 -19.4140625 56.95703125 C-16.50678097 46.03313679 -16.92312597 33.99249749 -21 23.4296875 C-23.9386229 18.80754142 -23.9386229 18.80754142 -28.70703125 16.421875 C-33.56111859 15.66518477 -36.78193477 15.58832973 -40.625 18.9921875 Z " fill="#D2D2D2" transform="translate(396.625,398.0078125)"/>
<path d="M0 0 C12.21 0 24.42 0 37 0 C37 44.88 37 89.76 37 136 C24.79 136 12.58 136 0 136 C0 91.12 0 46.24 0 0 Z " fill="#D2D2D2" transform="translate(168,353)"/>
<path d="M0 0 C1.15886719 -0.00257813 2.31773437 -0.00515625 3.51171875 -0.0078125 C6.3125 0.125 6.3125 0.125 7.3125 1.125 C7.40040975 3.41651417 7.41944038 5.71072524 7.41015625 8.00390625 C7.4087413 8.6905687 7.40732635 9.37723114 7.40586853 10.08470154 C7.40025479 12.28567801 7.38770007 14.48655409 7.375 16.6875 C7.36998676 18.17643083 7.36542355 19.66536324 7.36132812 21.15429688 C7.35028093 24.81123075 7.33300713 28.46810558 7.3125 32.125 C5.57613281 32.18107422 5.57613281 32.18107422 3.8046875 32.23828125 C2.26559439 32.30397425 0.7265333 32.37042042 -0.8125 32.4375 C-1.95332031 32.47133789 -1.95332031 32.47133789 -3.1171875 32.50585938 C-9.45248484 32.80623985 -13.72234588 34.20554714 -18.375 38.75 C-23.78324229 45.83361767 -24.14567082 54.13004965 -24.19921875 62.72265625 C-24.21716995 63.79752792 -24.23512115 64.8723996 -24.25361633 65.97984314 C-24.30740532 69.3823566 -24.34151436 72.78473232 -24.375 76.1875 C-24.40820076 78.5071805 -24.44269294 80.82684289 -24.47851562 83.14648438 C-24.56552293 88.80600598 -24.62586187 94.46491898 -24.6875 100.125 C-36.8975 100.125 -49.1075 100.125 -61.6875 100.125 C-61.71004916 87.49504197 -61.728414 74.8650972 -61.73931217 62.23512363 C-61.74454146 56.37117836 -61.75163994 50.50724751 -61.76293945 44.64331055 C-61.7737667 38.98938288 -61.77977649 33.33546913 -61.78237724 27.68153191 C-61.78423179 25.5192639 -61.78785295 23.35699669 -61.79323006 21.19473457 C-61.80043833 18.17741343 -61.80149103 15.16015057 -61.80102539 12.14282227 C-61.80462067 11.2393959 -61.80821594 10.33596954 -61.81192017 9.40516663 C-61.80155216 3.23905216 -61.80155216 3.23905216 -60.6875 2.125 C-58.16655924 2.03652257 -55.67319107 2.00972699 -53.15234375 2.02734375 C-52.02246788 2.02946617 -52.02246788 2.02946617 -50.86976624 2.03163147 C-48.4548044 2.03724624 -46.03993399 2.04980117 -43.625 2.0625 C-41.99153779 2.0675131 -40.35807414 2.07207634 -38.72460938 2.07617188 C-34.71220415 2.08722046 -30.69986759 2.10449494 -26.6875 2.125 C-26.1925 8.065 -26.1925 8.065 -25.6875 14.125 C-24.511875 12.7225 -23.33625 11.32 -22.125 9.875 C-15.62987407 2.56367241 -9.73838376 -0.02181049 0 0 Z " fill="#D2D2D2" transform="translate(849.6875,388.875)"/>
</svg>
